HIERARCHY
ROOT Hips
{
	OFFSET 0.00000 0.00000 0.00000
	CHANNELS 6 Xposition Yposition Zposition Zrotation Yrotation Xrotation 
	JOINT LHipJoint
	{
		OFFSET 0 0 0
		CHANNELS 3 Zrotation Yrotation Xrotation
		JOINT LeftHip
		{
			OFFSET 2.36090 -1.39315 1.24752
			CHANNELS 3 Zrotation Yrotation Xrotation
			JOINT LeftKnee
			{
				OFFSET 2.06810 -5.68207 0.00000
				CHANNELS 3 Zrotation Yrotation Xrotation
				JOINT LeftAnkle
				{
					OFFSET 2.46631 -6.77613 0.00000
					CHANNELS 3 Zrotation Yrotation Xrotation
					JOINT LeftToe
					{
						OFFSET 0.26031 -0.71520 1.99545
						CHANNELS 3 Zrotation Yrotation Xrotation
						End Site
						{
							OFFSET 0.00000 -0.00000 1.05957
						}
					}
				}
			}
		}
	}
	JOINT RHipJoint
	{
		OFFSET 0 0 0
		CHANNELS 3 Zrotation Yrotation Xrotation
		JOINT RightHip
		{
			OFFSET -2.25243 -1.39315 1.24752
			CHANNELS 3 Zrotation Yrotation Xrotation
			JOINT RightKnee
			{
				OFFSET -2.17343 -5.97145 0.00000
				CHANNELS 3 Zrotation Yrotation Xrotation
				JOINT RightAnkle
				{
					OFFSET -2.52372 -6.93386 0.00000
					CHANNELS 3 Zrotation Yrotation Xrotation
					JOINT RightToe
					{
						OFFSET -0.22538 -0.61923 2.11447
						CHANNELS 3 Zrotation Yrotation Xrotation
						End Site
						{
							OFFSET -0.00000 -0.00000 1.10506
						}
					}
				}
			}
		}
	}
	JOINT lowerback
	{
		OFFSET 0 0 0
		CHANNELS 3 Zrotation Yrotation Xrotation
		JOINT Chest
		{
			OFFSET 0.01594 2.13103 0.08007
			CHANNELS 3 Zrotation Yrotation Xrotation
			JOINT Chest2
			{
				OFFSET 0.01393 2.09723 0.18338
				CHANNELS 3 Zrotation Yrotation Xrotation
				JOINT lowerneck
				{
					OFFSET 0 0 0
					CHANNELS 3 Zrotation Yrotation Xrotation
					JOINT Neck
					{
						OFFSET 0.05351 1.38915 0.32494
						CHANNELS 3 Zrotation Yrotation Xrotation
						JOINT Head
						{
							OFFSET 0.00711 1.45992 -0.21666
							CHANNELS 3 Zrotation Yrotation Xrotation
							End Site
							{
								OFFSET -0.00433 1.47702 -0.11056
							}
						}
					}
				}
				JOINT LeftCollar
				{
					OFFSET 0 0 0
					CHANNELS 3 Zrotation Yrotation Xrotation
					JOINT LeftShoulder
					{
						OFFSET 2.87198 0.92249 0.11132
CHANNELS 3 Zrotation Xrotation Yrotation
						JOINT LeftElbow
						{
OFFSET 0 -5.527310 0.000000
CHANNELS 3 Zrotation Xrotation Yrotation
							JOINT LeftWrist
							{
OFFSET 0 -3.110590 0.000000
CHANNELS 3 Zrotation Xrotation Yrotation
								JOINT lhand
								{
									OFFSET 0 0 0
CHANNELS 3 Zrotation Xrotation Yrotation
									JOINT LFingers
									{
OFFSET 0 -0.419630 0.000000
CHANNELS 3 Zrotation Xrotation Yrotation
										End Site
										{
OFFSET 0 -0.338310 0.000000
										}
									}
								}
								JOINT LThumb
								{
OFFSET 0 0.000000 0.000000
CHANNELS 3 Zrotation Xrotation Yrotation
									End Site
									{
OFFSET 0 -0.343480 0.343480
									}
								}
							}
						}
					}
				}
				JOINT RightCollar
				{
					OFFSET 0 0 0
					CHANNELS 3 Zrotation Yrotation Xrotation
					JOINT RightShoulder
					{
						OFFSET -2.94710 0.68072 0.32187
CHANNELS 3 Zrotation Xrotation Yrotation
						JOINT RightElbow
						{
OFFSET 0 -5.253960 -0.000000
CHANNELS 3 Zrotation Xrotation Yrotation
							JOINT RightWrist
							{
OFFSET 0 -3.105670 0.000000
CHANNELS 3 Zrotation Xrotation Yrotation
								JOINT rhand
								{
									OFFSET 0 0 0
CHANNELS 3 Zrotation Xrotation Yrotation
									JOINT RFingers
									{
OFFSET 0 -0.498680 0.000000
CHANNELS 3 Zrotation Xrotation Yrotation
										End Site
										{
OFFSET 0 -0.402040 0.000000
										}
									}
								}
								JOINT RThumb
								{
OFFSET 0 0.000000 0.000000
CHANNELS 3 Zrotation Xrotation Yrotation
									End Site
									{
OFFSET 0 -0.408180 0.408180
									}
								}
							}
						}
					}
				}
			}
		}
	}
}
MOTION
Frames: 6
Frame Time: 0.008333333333333333
5.422600 15.816200 0.717300 -1.490200 -12.070600 14.507700 0.000000 0.000000 0.000000 -20.936000 -11.845500 -22.217100 2.395100 9.644700 27.833700 0.904700 -2.382800 -17.328300 0.374700 -3.931700 -10.884500 0.000000 0.000000 0.000000 19.275200 24.818100 -22.210400 -3.884500 -12.005100 35.749900 -1.123900 -2.351300 -21.000800 -0.468300 4.389300 -12.174500 -0.602200 -0.792500 -21.321700 1.048300 -1.028500 -3.963200 1.198200 -0.534300 7.620100 -7.788000 -8.897600 -10.926300 3.355600 -11.523000 18.226500 1.140100 -5.728000 8.095100 0.000000 0.000000 0.000000 6.614500 7.483900 -36.623600 14.446200 -23.369000 3.002800 20.343600 -41.569800 1.791100 0.000000 0.000000 0.000000 -7.125000 0.000000 0.000000 -4.819000 28.058300 -1.992400 0.000000 0.000000 0.000000 -6.567500 3.567200 28.024800 -12.739600 -20.904400 -2.359500 -16.645900 1.822100 17.624400 0.000000 0.000000 0.000000 7.125000 0.000000 -0.000000 10.949300 48.017000 -0.824200
5.420623 15.817354 0.723119 -1.457232 -12.154069 14.528855 0.000000 0.000000 0.000000 -20.979449 -11.797078 -22.205474 2.392612 9.639935 27.818404 0.908742 -2.380801 -17.368698 0.357408 -3.840859 -10.629379 0.000000 0.000000 0.000000 19.226886 24.758455 -22.265555 -3.887931 -12.009719 35.766501 -1.134727 -2.188549 -21.021822 -0.459381 4.347586 -12.056566 -0.652559 -0.915526 -21.384480 1.220810 -1.193666 -4.141604 1.369002 -0.616210 7.467508 -7.741422 -8.644903 -11.335241 2.869222 -11.073870 18.793304 1.000166 -5.550808 8.300556 0.000000 0.000000 0.000000 6.325540 7.807499 -36.107084 14.319173 -23.189146 2.952599 20.370451 -41.737171 1.365071 0.000000 0.000000 0.000000 -7.125000 0.000000 0.000000 -4.816698 28.510218 -1.937853 0.000000 0.000000 0.000000 -6.846624 3.673145 27.923023 -12.707608 -20.857313 -2.348162 -16.588968 1.815074 17.485364 0.000000 0.000000 0.000000 7.125000 0.000000 0.000000 10.959955 47.868425 -0.784530
5.420708 15.813977 0.720115 -1.469603 -12.112119 14.385962 0.000000 0.000000 0.000000 -21.003319 -11.587102 -22.147180 2.401061 9.655699 27.868745 0.914362 -2.565198 -17.387958 0.366670 -3.889648 -10.766475 0.000000 0.000000 0.000000 19.314854 24.508551 -22.179996 -3.889862 -12.012393 35.775786 -1.145509 -1.991475 -21.027553 -0.452060 4.313394 -11.959983 -0.506606 -0.943039 -21.254526 1.306939 -1.269585 -4.128710 1.359492 -0.650416 7.414222 -7.570110 -8.473383 -11.233468 2.066639 -10.664087 17.708470 0.790195 -5.418847 7.842079 0.000000 0.000000 0.000000 6.519123 7.748354 -36.602443 14.197263 -23.016107 2.904828 21.745668 -41.371727 1.971153 0.000000 0.000000 0.000000 -7.125000 0.000000 0.000000 -3.730716 27.852230 -1.560522 0.000000 0.000000 0.000000 -6.938706 3.664082 27.727486 -12.743695 -20.910473 -2.361016 -16.811016 1.793643 17.481070 0.000000 0.000000 0.000000 7.125000 0.000000 0.000000 10.750271 47.895346 -0.776341
5.421135 15.813569 0.718304 -1.493709 -12.067084 14.346702 0.000000 0.000000 0.000000 -20.984033 -11.586826 -22.117333 2.403738 9.660711 27.884868 0.919315 -2.614274 -17.426956 0.376204 -3.939518 -10.906617 0.000000 0.000000 0.000000 19.365233 24.582323 -22.074244 -3.885204 -12.006073 35.753387 -1.140342 -2.124997 -21.041529 -0.452287 4.314499 -11.963279 -0.290463 -0.921429 -21.143054 1.333637 -1.290635 -4.190425 1.260486 -0.655910 7.284737 -7.047290 -8.067497 -11.265676 0.659604 -9.894331 16.605057 0.370640 -5.138383 7.344619 0.000000 0.000000 0.000000 6.865451 7.731664 -37.252324 14.136707 -22.929776 2.881169 20.800848 -40.963242 2.122915 0.000000 0.000000 0.000000 -7.125000 0.000000 0.000000 -4.454640 27.700471 -1.878728 0.000000 0.000000 0.000000 -6.837050 3.594404 27.171699 -12.511272 -20.566762 -2.278836 -16.658610 2.133412 17.380018 0.000000 0.000000 0.000000 7.125000 0.000000 0.000000 10.862478 47.771567 -0.751273
5.417969 15.814662 0.722016 -1.465574 -12.091489 14.430335 0.000000 0.000000 0.000000 -20.991934 -11.608654 -22.175862 2.398470 9.650931 27.853448 0.920024 -2.603408 -17.436586 0.375919 -3.938025 -10.902510 0.000000 0.000000 0.000000 19.305095 24.635620 -22.156121 -3.886362 -12.007670 35.759109 -1.141068 -2.144092 -21.056934 -0.451981 4.313208 -11.959556 -0.174961 -0.871338 -21.146943 1.266179 -1.244515 -4.274304 1.134202 -0.630576 7.190162 -6.504769 -7.385590 -11.297829 -0.466322 -8.834935 15.234700 0.073006 -4.680593 6.785508 0.000000 0.000000 0.000000 7.051423 7.631254 -37.306353 14.138336 -22.932116 2.881750 21.105593 -40.993652 2.256311 0.000000 0.000000 0.000000 -7.125000 0.000000 0.000000 -4.216392 27.554225 -1.792261 0.000000 0.000000 0.000000 -6.560499 3.690198 26.610902 -12.437034 -20.456775 -2.252717 -16.689229 2.406186 17.287991 0.000000 0.000000 0.000000 7.125000 0.000000 0.000000 10.805775 47.682819 -0.723290
5.407803 15.812815 0.727009 -1.407610 -12.031405 14.339357 0.000000 0.000000 0.000000 -21.010113 -11.626060 -22.000093 2.389439 9.633978 27.799420 0.921873 -2.687970 -17.438347 0.355987 -3.831144 -10.602346 0.000000 0.000000 0.000000 19.344941 24.765879 -21.982683 -3.901373 -12.027973 35.830991 -1.142209 -2.370389 -21.171006 -0.446401 4.286888 -11.885199 -0.285717 -0.908381 -21.053668 1.181117 -1.260885 -4.285727 1.102068 -0.639812 7.129186 -5.831078 -6.577310 -11.636764 -1.589386 -7.641716 14.114149 -0.254291 -4.143600 6.375351 0.000000 0.000000 0.000000 7.050087 7.582179 -37.088004 14.185957 -22.999867 2.900380 20.624585 -40.523367 1.232084 0.000000 0.000000 0.000000 -7.125000 0.000000 0.000000 -4.623849 28.651331 -1.846219 0.000000 0.000000 0.000000 -6.383174 3.970546 26.863297 -12.512067 -20.567994 -2.279104 -16.678970 2.265025 17.417648 0.000000 0.000000 0.000000 7.125000 0.000000 0.000000 10.854800 47.812550 -0.761669
